<svg width="125.706" height="37.931" xmlns="http://www.w3.org/2000/svg" data-name="Layer 2">
 <defs>
  <style>.cls-1{fill:#00c9db;}.cls-2{fill:url(#New_Gradient_Swatch_61);}.cls-3{fill:url(#New_Gradient_Swatch_8);}.cls-4{fill:url(#New_Gradient_Swatch_8-2);}.cls-5{fill:url(#New_Gradient_Swatch_16);}.cls-6{fill:url(#New_Gradient_Swatch_16-2);}.cls-7{fill:url(#New_Gradient_Swatch_16-3);}.cls-8{fill:url(#New_Gradient_Swatch_8-3);}.cls-9{fill:url(#New_Gradient_Swatch_16-4);}.cls-10{fill:url(#New_Gradient_Swatch_8-4);}.cls-11{fill:url(#New_Gradient_Swatch_16-5);}.cls-12{fill:url(#New_Gradient_Swatch_8-5);}.cls-13{fill:url(#New_Gradient_Swatch_8-6);}.cls-14{fill:url(#New_Gradient_Swatch_16-6);}.cls-15{fill:url(#New_Gradient_Swatch_8-7);}.cls-16{fill:url(#New_Gradient_Swatch_16-7);}.cls-17{fill:url(#New_Gradient_Swatch_61-2);}.cls-18{fill:url(#New_Gradient_Swatch_61-3);}.cls-19{fill:url(#New_Gradient_Swatch_61-4);}.cls-20{fill:url(#New_Gradient_Swatch_61-5);}.cls-21{fill:url(#New_Gradient_Swatch_8-8);}.cls-22{fill:url(#New_Gradient_Swatch_61-6);}.cls-23{fill:url(#New_Gradient_Swatch_8-9);}.cls-24{fill:url(#New_Gradient_Swatch_61-7);}.cls-25{fill:url(#New_Gradient_Swatch_16-8);}.cls-26{fill:url(#New_Gradient_Swatch_61-8);}.cls-27{fill:url(#New_Gradient_Swatch_16-9);}.cls-28{fill:url(#New_Gradient_Swatch_61-9);}.cls-29{fill:url(#New_Gradient_Swatch_8-10);}.cls-30{fill:url(#New_Gradient_Swatch_16-10);}.cls-31{fill:#f1f1f8;}</style>
 </defs>
 <title>logo</title>
 <g>
  <title>background</title>
  <rect fill="none" id="canvas_background" height="561" width="1025" y="-1" x="-1"/>
 </g>
 <g>
  <title>Layer 1</title>
  <path id="svg_2" d="m34.385,20.143q-0.409,-0.965 -0.9,-1.958a44.752,44.752 0 0 1 -1.676,4.492c0.755,2.3 0.917,4.124 0.4,4.925l-0.02,0.03a1.888,1.888 0 0 1 -0.535,0.513c1.295,-0.679 3.769,-1.881 2.731,-8.002z" class="cls-2"/>
  <path id="svg_4" d="m33.943,19.142l-0.028,-0.06c0,0.009 0.008,0.02 0.013,0.03l0.015,0.03z" class="cls-3"/>
  <path id="svg_5" d="m34.347,20.059l-0.014,-0.03l0.012,0.027l0.002,0.003z" class="cls-4"/>
  <path id="svg_6" d="m34.333,20.029c-0.1,-0.239 -0.208,-0.479 -0.317,-0.721c0.063,0.14 0.123,0.278 0.184,0.417c0.043,0.098 0.09,0.204 0.133,0.304z" class="cls-5"/>
  <path id="svg_7" d="m34.386,20.154c1.49,3.541 2.114,6.7 1.637,8.688c0.01,-0.008 0.022,-0.015 0.03,-0.023c0.486,-1.972 -0.177,-5.142 -1.669,-8.67l0,0.005l0.002,0z" class="cls-6"/>
  <path id="svg_8" d="m33.489,18.185c0.148,0.3 0.289,0.6 0.427,0.9c-0.138,-0.3 -0.279,-0.599 -0.427,-0.9z" class="cls-7"/>
  <path id="svg_9" d="m34.345,20.053l-0.012,-0.024c-0.043,-0.1 -0.09,-0.2 -0.133,-0.3c0.048,0.1 0.1,0.215 0.145,0.324z" class="cls-8"/>
  <path id="svg_10" d="m34.345,20.053l-0.012,-0.024c-0.043,-0.1 -0.09,-0.2 -0.133,-0.3c0.048,0.1 0.1,0.215 0.145,0.324z" class="cls-9"/>
  <path id="svg_11" d="m32.066,27.796a1.279,1.279 0 0 0 0.128,-0.164a1.37,1.37 0 0 1 -0.128,0.164z" class="cls-10"/>
  <path id="svg_12" d="m32.066,27.796a1.279,1.279 0 0 0 0.128,-0.164a1.37,1.37 0 0 1 -0.128,0.164z" class="cls-11"/>
  <path id="svg_13" d="m34.386,20.154c1.033,6.111 -1.438,7.313 -2.727,7.991l0.013,-0.011c-1.111,0.762 -3.5,1.245 -6.507,1.259a44.4,44.4 0 0 1 -8.99,-1.623a9.052,9.052 0 0 0 0.177,1.357c0.037,0.175 0.08,0.348 0.126,0.519c8.243,2.233 17.182,1.176 19.545,-0.8c0.477,-1.989 -0.147,-5.151 -1.637,-8.692z" class="cls-12"/>
  <path id="svg_14" d="m31.914,27.946c0.031,-0.028 0.061,-0.056 0.089,-0.083c-0.028,0.027 -0.058,0.055 -0.089,0.083z" class="cls-13"/>
  <path id="svg_15" d="m31.914,27.946c0.031,-0.028 0.061,-0.056 0.089,-0.083c-0.028,0.027 -0.058,0.055 -0.089,0.083z" class="cls-14"/>
  <path id="svg_16" d="m33.915,19.083c-0.138,-0.3 -0.279,-0.6 -0.427,-0.9q0.229,0.466 0.44,0.927c-0.005,-0.008 -0.008,-0.018 -0.013,-0.027z" class="cls-15"/>
  <path id="svg_17" d="m33.915,19.083c-0.138,-0.3 -0.279,-0.6 -0.427,-0.9q0.229,0.466 0.44,0.927c-0.005,-0.008 -0.008,-0.018 -0.013,-0.027z" class="cls-16"/>
  <path id="svg_18" d="m34.385,20.148l0,0c-0.012,-0.029 -0.026,-0.056 -0.037,-0.085l0,0.007l0.037,0.078z" class="cls-17"/>
  <path id="svg_19" d="m34.016,19.305l-0.073,-0.163c0.014,0.029 0.025,0.057 0.038,0.086l0.035,0.077z" class="cls-18"/>
  <path id="svg_20" d="m31.673,28.129a2.342,2.342 0 0 0 0.241,-0.188a2.469,2.469 0 0 1 -0.241,0.188z" class="cls-19"/>
  <path id="svg_21" d="m32,27.863c0.023,-0.023 0.044,-0.045 0.063,-0.067c-0.017,0.022 -0.038,0.045 -0.063,0.067z" class="cls-20"/>
  <path id="svg_22" d="m33.981,19.229c-0.013,-0.028 -0.024,-0.057 -0.038,-0.086l-0.014,-0.03c0.018,0.038 0.034,0.076 0.052,0.116z" class="cls-21"/>
  <path id="svg_23" d="m33.981,19.229c-0.013,-0.028 -0.024,-0.057 -0.038,-0.086l-0.014,-0.03c0.018,0.038 0.034,0.076 0.052,0.116z" class="cls-22"/>
  <path id="svg_24" d="m34.349,20.066l0,-0.007l0,-0.005l0,0.012z" class="cls-23"/>
  <path id="svg_25" d="m34.349,20.066l0,-0.007l0,-0.005l0,0.012z" class="cls-24"/>
  <path id="svg_26" d="m34.2,19.723c-0.061,-0.139 -0.121,-0.277 -0.184,-0.417l-0.035,-0.077c0.075,0.165 0.146,0.329 0.219,0.494z" class="cls-25"/>
  <path id="svg_27" d="m34.2,19.723c-0.061,-0.139 -0.121,-0.277 -0.184,-0.417l-0.035,-0.077c0.075,0.165 0.146,0.329 0.219,0.494z" class="cls-26"/>
  <path id="svg_28" d="m34.386,20.154l0,-0.006l-0.036,-0.083c0.012,0.03 0.023,0.059 0.036,0.089z" class="cls-27"/>
  <path id="svg_29" d="m34.386,20.154l0,-0.006l-0.036,-0.083c0.012,0.03 0.023,0.059 0.036,0.089z" class="cls-28"/>
  <path id="svg_30" d="m34.386,20.154c-0.013,-0.03 -0.024,-0.059 -0.037,-0.088l0,-0.012c-0.047,-0.109 -0.1,-0.22 -0.145,-0.331c-0.072,-0.165 -0.144,-0.329 -0.219,-0.495c-0.018,-0.039 -0.034,-0.077 -0.052,-0.116q-0.212,-0.46 -0.44,-0.927a44.752,44.752 0 0 1 -1.676,4.492c0.755,2.3 0.917,4.124 0.4,4.925l-0.02,0.03a1.279,1.279 0 0 1 -0.128,0.164c-0.02,0.022 -0.041,0.045 -0.063,0.067s-0.058,0.055 -0.089,0.083a2.342,2.342 0 0 1 -0.241,0.188l-0.013,0.011c1.285,-0.679 3.756,-1.88 2.723,-7.991z" class="cls-29"/>
  <path id="svg_31" d="m34.386,20.154c-0.013,-0.03 -0.024,-0.059 -0.037,-0.088l0,-0.012c-0.047,-0.109 -0.1,-0.22 -0.145,-0.331c-0.072,-0.165 -0.144,-0.329 -0.219,-0.495c-0.018,-0.039 -0.034,-0.077 -0.052,-0.116q-0.212,-0.46 -0.44,-0.927a44.752,44.752 0 0 1 -1.676,4.492c0.755,2.3 0.917,4.124 0.4,4.925l-0.02,0.03a1.279,1.279 0 0 1 -0.128,0.164c-0.02,0.022 -0.041,0.045 -0.063,0.067s-0.058,0.055 -0.089,0.083a2.342,2.342 0 0 1 -0.241,0.188l-0.013,0.011c1.285,-0.679 3.756,-1.88 2.723,-7.991z" class="cls-30"/>
  <text font-weight="bold" stroke="null" transform="matrix(0.9344945709586492,0,0,0.8866853201394014,58.86738986893444,17.93122278041444) " xml:space="preserve" text-anchor="start" font-family="Helvetica, Arial, sans-serif" font-size="24" id="svg_42" y="7.883751" x="-62.720502" fill-opacity="null" stroke-opacity="null" stroke-width="0" fill="#ffffff">QueryBaski</text>
 </g>
</svg>